Coordinates
version=1
nRows=31
nColumns=33
inDegrees=yes

Units are S.I. units (second, meters, Newtons, ...)
Angles are in degrees.

endheader
time	ground_thorax_rot_x	ground_thorax_rot_y	ground_thorax_rot_z	ground_thorax_tx	ground_thorax_ty	ground_thorax_tz	clav_prot_r	clav_elev_r	scapula_abduction_r	scapula_elevation_r	scapula_upward_rot_r	scapula_winging_r	shoulder_elv_r	plane_of_elev_r	axial_rot_r	elbow_flexion_r	pro_sup_r	wrist_flex_r	wrist_dev_r	clav_prot_l	clav_elev_l	scapula_abduction_l	scapula_elevation_l	scapula_upward_rot_l	scapula_winging_l	shoulder_elv_l	plane_of_elev_l	axial_rot_l	elbow_flexion_l	pro_sup_l	wrist_flex_l	wrist_dev_l	
2.7900	36.902530	9.102146	15.476176	-230.623983	821.661735	-0.480592	15.623277	38.371131	39.142639	45.000000	-45.000000	2072.250315	-2268.187335	147.629390	-137.616972	1814.935089	48.364801	19.246155	4.907141	10.116435	-45.000000	-37.571373	45.000000	-44.978591	-980.943431	-1005.895517	24.859066	-15.472941	1446.120724	27.217001	7.433816	-23.207199	
2.8000	36.886670	9.145392	15.578005	-230.215035	821.019822	-0.637494	15.648431	38.235307	38.996179	45.000000	-45.000000	2072.397358	-2268.144237	147.667525	-137.883907	1815.188379	50.016465	19.074554	4.877940	10.203027	-45.000000	-37.513882	45.000000	-44.942912	-981.106495	-1005.842758	24.735197	-15.513175	1446.189295	27.381490	7.508361	-23.214800	
2.8100	36.871059	9.195243	15.671893	-229.763475	820.384755	-0.796470	15.671307	38.058850	38.839495	45.000000	-45.000000	2072.576479	-2268.071391	147.717542	-138.157484	1815.443661	51.649791	18.874019	4.876808	10.301890	-45.000000	-37.457341	45.000000	-44.918982	-981.314519	-1005.752336	24.570421	-15.575519	1446.292708	27.570251	7.652381	-23.226494	
2.8200	36.852935	9.238998	15.768909	-229.201949	819.759519	-0.959969	15.670787	37.962875	38.721420	45.000000	-45.000000	2072.713943	-2268.021760	147.723926	-138.401746	1815.657368	53.215259	18.716369	4.811470	10.374552	-45.000000	-37.444488	45.000000	-44.881639	-981.451159	-1005.725112	24.469326	-15.693530	1446.355834	27.765013	7.622652	-23.223255	
2.8300	36.838175	9.270414	15.855921	-228.546273	819.151810	-1.127068	15.648872	37.908869	38.645566	45.000000	-45.000000	2072.826247	-2267.984849	147.711255	-138.638584	1815.851444	54.748351	18.571650	4.718741	10.435182	-45.000000	-37.455637	45.000000	-44.843074	-981.553108	-1005.726087	24.403294	-15.853818	1446.415161	27.980244	7.513213	-23.213758	
2.8400	36.832222	9.271034	15.918959	-227.803590	818.570200	-1.296553	15.621110	37.887392	38.628599	45.000000	-45.000000	2072.910158	-2267.961224	147.682303	-138.862269	1816.041367	56.302085	18.438255	4.604582	10.475692	-45.000000	-37.472083	45.000000	-44.788027	-981.634146	-1005.742342	24.362814	-16.047598	1446.477453	28.224637	7.344929	-23.200276	
2.8500	36.833218	9.246358	15.959242	-227.001521	818.025515	-1.465517	15.590024	37.889499	38.663815	45.000000	-44.999999	2072.974846	-2267.951690	147.652972	-139.073201	1816.236505	57.929040	18.304721	4.480637	10.501679	-45.000000	-37.495094	45.000000	-44.725517	-981.696280	-1005.764327	24.344880	-16.254329	1446.547810	28.495612	7.149884	-23.186093	
2.8600	36.839417	9.200272	15.976197	-226.171392	817.529308	-1.630179	15.574910	37.888888	38.722962	45.000000	-44.999999	2073.031621	-2267.933881	147.620886	-139.259568	1816.457583	59.679794	18.163007	4.360524	10.515189	-45.000000	-37.517378	45.000000	-44.638062	-981.763499	-1005.770843	24.319104	-16.449398	1446.631761	28.784734	6.974395	-23.174386	
2.8700	36.848796	9.137061	15.973081	-225.335621	817.093520	-1.786465	15.569926	37.900420	38.812295	45.000000	-44.999997	2073.073540	-2267.927075	147.592332	-139.408560	1816.696591	61.614111	18.011698	4.240455	10.517890	-45.000000	-37.544441	45.000000	-44.526008	-981.819727	-1005.774880	24.302693	-16.623480	1446.709486	29.070698	6.811826	-23.163402	
2.8800	36.857844	9.065861	15.954286	-224.505628	816.729306	-1.930822	15.583527	37.911609	38.907135	45.000000	-44.999995	2073.111215	-2267.914767	147.562522	-139.495921	1816.959635	63.796707	17.846948	4.124628	10.511955	-45.000000	-37.577569	45.000000	-44.379039	-981.876262	-1005.769945	24.280777	-16.768273	1446.777043	29.330846	6.678745	-23.152041	
2.8900	36.862733	9.001901	15.930723	-223.683040	816.446659	-2.060625	15.600197	37.923611	38.989191	45.000000	-44.999992	2073.150794	-2267.896722	147.533799	-139.494294	1817.251422	66.349431	17.658962	4.016334	10.510177	-45.000000	-37.630674	45.000000	-44.207390	-981.923215	-1005.763509	24.260148	-16.883005	1446.831396	29.530440	6.576679	-23.139111	
2.9000	36.862554	8.951530	15.909553	-222.860393	816.252237	-2.174859	15.609966	37.926751	39.039876	45.000000	-44.999985	2073.195394	-2267.857720	147.498357	-139.374997	1817.591056	69.421036	17.439965	3.921465	10.520586	-45.000000	-37.708300	45.000000	-44.008550	-981.962272	-1005.755977	24.232690	-16.968316	1446.876495	29.638288	6.513617	-23.123906	
2.9100	36.864674	8.900830	15.880434	-222.024290	816.148367	-2.274211	15.610259	37.930231	39.091791	45.000000	-44.999973	2073.230915	-2267.828574	147.468460	-139.024444	1818.024059	73.578014	17.161861	3.855249	10.541959	-45.000000	-37.797612	45.000000	-43.782053	-981.993917	-1005.752979	24.210936	-17.044333	1446.910551	29.608083	6.492535	-23.103371	
2.9200	36.866962	8.851268	15.849310	-221.157858	816.131930	-2.361035	15.596970	37.928682	39.142624	45.000000	-44.999952	2073.265332	-2267.807149	147.449910	-138.378795	1818.579562	79.133546	16.808799	3.827643	10.571062	-45.000000	-37.899913	45.000000	-43.536615	-982.019563	-1005.751639	24.190496	-17.120611	1446.938506	29.419678	6.514196	-23.076962	
2.9300	36.874026	8.792908	15.807438	-220.243962	816.194781	-2.438830	15.599435	37.930096	39.206537	45.000000	-44.999914	2073.285376	-2267.842402	147.459018	-136.868724	1819.476172	88.568881	16.255345	3.901413	10.596960	-45.000000	-38.006182	45.000000	-43.250150	-982.049221	-1005.753500	24.157583	-17.255154	1446.955627	28.916597	6.590237	-23.030099	
2.9400	36.877981	8.740318	15.773194	-219.266746	816.324535	-2.511595	15.583165	37.923147	39.268648	45.000000	-44.999847	2073.307298	-2267.911141	147.495571	-134.709476	1820.625413	100.924203	15.544741	4.062792	10.619873	-45.000000	-38.122965	45.000000	-42.960406	-982.076256	-1005.753834	24.120216	-17.424901	1446.970269	28.190554	6.712905	-22.974591	
2.9500	36.887667	8.681794	15.729199	-218.212733	816.506421	-2.583030	15.574730	37.920630	39.348017	45.000000	-44.999725	2073.317123	-2268.017263	147.545160	-132.081037	1821.945145	115.354898	14.729263	4.298169	10.632969	-45.000000	-38.239605	45.000000	-42.662062	-982.116245	-1005.752718	24.084052	-17.609064	1446.981928	27.321793	6.863600	-22.912272	
2.9600	36.901567	8.613316	15.683645	-217.071031	816.725101	-2.655802	15.563153	37.915713	39.448839	45.000000	-44.999508	2073.322676	-2268.111636	147.574066	-129.773485	1823.117369	128.345813	13.990938	4.525710	10.640044	-45.000000	-38.344310	45.000000	-42.375543	-982.160969	-1005.749355	24.073734	-17.733022	1446.995825	26.558512	7.012791	-22.863593	
2.9700	36.925743	8.524295	15.624944	-215.833053	816.966335	-2.731083	15.582881	37.920045	39.583587	45.000000	-44.999119	2073.308705	-2268.202212	147.565335	-127.861066	1824.108903	139.539545	13.356271	4.735997	10.639128	-45.000000	-38.428331	45.000000	-42.071711	-982.217769	-1005.745339	24.082898	-17.804326	1447.011399	25.913797	7.147266	-22.822533	
2.9800	36.955432	8.423362	15.566392	-214.492174	817.218062	-2.808323	15.600395	37.921176	39.741833	45.000000	-44.998422	2073.293505	-2268.240399	147.504331	-126.932794	1824.696401	146.391103	12.952030	4.864692	10.636888	-45.000000	-38.497921	45.000000	-41.768068	-982.276504	-1005.739197	24.124025	-17.787064	1447.031843	25.546102	7.253858	-22.804159	
2.9900	36.991964	8.317764	15.498495	-213.043233	817.470849	-2.885471	15.638987	37.930096	39.916209	45.000000	-44.997173	2073.275847	-2268.233711	147.398330	-126.812492	1824.959623	149.710398	12.740922	4.923423	10.636432	-45.000000	-38.574327	45.000000	-41.430887	-982.344540	-1005.734139	24.174595	-17.717301	1447.058821	25.370369	7.333657	-22.796340	
3.0000	37.033446	8.205371	15.422130	-211.482432	817.717733	-2.959357	15.694413	37.946529	40.110098	45.000000	-44.994939	2073.259564	-2268.191106	147.258099	-127.355969	1824.961469	150.178951	12.682352	4.919393	10.632394	-45.000000	-38.659215	45.000000	-41.043487	-982.416682	-1005.733734	24.229298	-17.624094	1447.087413	25.322102	7.400442	-22.795632	
3.0100	37.076507	8.097087	15.331160	-209.807027	817.953733	-3.026313	15.781610	37.980831	40.311361	45.000000	-44.990926	2073.246915	-2268.149739	147.116968	-127.898058	1824.971068	150.738246	12.622081	4.916862	10.618830	-45.000000	-38.779013	45.000000	-40.576106	-982.495965	-1005.738934	24.258388	-17.575985	1447.120019	25.189374	7.476742	-22.784150	
3.0200	37.116824	8.002096	15.233389	-208.014972	818.175199	-3.082721	15.877310	38.028339	40.511094	45.000000	-44.983770	2073.248249	-2268.102461	146.984731	-128.437489	1824.988585	151.407042	12.552800	4.915117	10.595486	-45.000000	-38.939979	45.000000	-40.043980	-982.577367	-1005.747327	24.265386	-17.565508	1447.159323	24.977344	7.570779	-22.766841	
3.0300	37.153572	7.923660	15.126392	-206.104469	818.379165	-3.125500	15.984212	38.091757	40.705053	45.000000	-44.970858	2073.264505	-2268.049046	146.860632	-128.968474	1825.014073	152.201354	12.475772	4.913796	10.565816	-45.000000	-39.146629	45.000000	-39.446067	-982.662491	-1005.758860	24.247343	-17.580035	1447.209252	24.688932	7.681117	-22.742990	
3.0400	37.191400	7.847382	15.010153	-204.073662	818.562720	-3.152355	16.102853	38.165280	40.912904	45.000000	-44.947991	2073.285098	-2267.999922	146.737251	-129.484684	1825.038609	153.132394	12.391372	4.912902	10.529613	-45.000000	-39.367039	45.000000	-38.784454	-982.749968	-1005.776290	24.218100	-17.615357	1447.259901	24.334849	7.810389	-22.711621	
3.0500	37.227523	7.781517	14.892196	-201.920277	818.722526	-3.161860	16.198527	38.231783	41.124881	45.000000	-44.906298	2073.310846	-2267.956104	146.615710	-129.980897	1825.062712	154.198358	12.298611	4.912794	10.501798	-45.000000	-39.595640	45.000000	-38.087267	-982.838389	-1005.799669	24.188385	-17.671881	1447.310469	23.930299	7.958220	-22.672215	
3.0600	37.261989	7.724522	14.777006	-199.641495	818.854350	-3.153408	16.278645	38.296950	41.339811	45.000000	-44.833658	2073.348544	-2267.915285	146.500663	-130.449193	1825.083537	155.399789	12.196787	4.913187	10.474516	-45.000000	-39.828149	45.000000	-37.353527	-982.926647	-1005.828586	24.154597	-17.739476	1447.362409	23.487786	8.124505	-22.625326	
3.0700	37.297283	7.674751	14.658083	-197.234023	818.952744	-3.127143	16.310117	38.355010	41.551572	45.000000	-44.697833	2073.391888	-2267.886594	146.392688	-130.876139	1825.098091	156.716881	12.088833	4.905600	10.465014	-45.000000	-40.061405	45.000000	-36.598023	-983.018751	-1005.868749	24.129535	-17.814470	1447.409263	23.028574	8.305468	-22.569058	
3.0800	37.336893	7.622682	14.523315	-194.694265	819.010752	-3.083850	16.341014	38.436527	41.762068	45.000000	-44.470456	2073.443311	-2267.875652	146.300779	-131.244549	1825.105701	158.142513	11.974560	4.886239	10.443005	-45.000000	-40.302613	45.000000	-35.796722	-983.119772	-1005.917913	24.101456	-17.874371	1447.458570	22.563567	8.498301	-22.505332	
3.0900	37.385013	7.563257	14.360011	-192.018195	819.019844	-3.025029	16.368226	38.545214	41.968368	45.000000	-44.121899	2073.494845	-2267.895135	146.226724	-131.546202	1825.103847	159.661988	11.855903	4.848892	10.412762	-45.000000	-40.554930	45.000000	-34.948067	-983.236872	-1005.983438	24.076347	-17.912660	1447.501607	22.110684	8.701103	-22.433072	
